<svg width="98" height="101" viewBox="0 0 98 101" fill="none" xmlns="http://www.w3.org/2000/svg">
<path d="M48.9999 7.04649C48.9999 3.15492 45.827 -0.0549772 41.981 0.538815C38.3554 1.09858 34.8014 2.09136 31.3964 3.50172C25.8155 5.81344 20.7445 9.20178 16.473 13.4733C12.2015 17.7448 8.81314 22.8158 6.50142 28.3967C4.1897 33.9777 2.99988 39.9594 2.99988 46.0002C2.99988 52.041 4.1897 58.0226 6.50142 63.6036C8.81314 69.1846 12.2015 74.2556 16.473 78.5271C20.7445 82.7986 25.8155 86.1869 31.3964 88.4986C34.8014 89.909 38.3554 90.9018 41.981 91.4616C45.827 92.0553 48.9999 88.8454 48.9999 84.9539V84.9539C48.9999 81.0623 45.8077 77.9851 42.0107 77.1327C40.2303 76.733 38.4833 76.1804 36.7895 75.4788C32.9183 73.8753 29.4008 71.525 26.438 68.5621C23.4751 65.5992 21.1248 62.0818 19.5213 58.2106C17.9178 54.3394 17.0925 50.1903 17.0925 46.0002C17.0925 41.81 17.9178 37.6609 19.5213 33.7898C21.1248 29.9186 23.4751 26.4011 26.4379 23.4383C29.4008 20.4754 32.9183 18.1251 36.7895 16.5216C38.4833 15.82 40.2303 15.2674 42.0107 14.8677C45.8077 14.0153 48.9999 10.9381 48.9999 7.04649V7.04649Z" fill="url(#paint0_linear_0_391)"/>
<g filter="url(#filter0_d_0_391)">
<circle cx="54.9999" cy="46.0002" r="40" fill="white"/>
</g>
<path d="M46.9999 55.9218C46.9999 60.798 50.9124 64.7418 55.7499 64.7418C60.5874 64.7418 64.4999 60.798 64.4999 55.9218V50.8818H46.9999V55.9218ZM60.8999 41.268L63.5249 38.622L62.4999 37.5762L59.6249 40.4868C58.4499 39.8946 57.1499 39.5418 55.7499 39.5418C54.3499 39.5418 53.0499 39.8946 51.8874 40.4868L48.9999 37.5762L47.9749 38.622L50.5999 41.268C48.4249 42.8682 46.9999 45.4386 46.9999 48.3618V49.6218H64.4999V48.3618C64.4999 45.4386 63.0749 42.8682 60.8999 41.268ZM51.9999 47.1018C51.3124 47.1018 50.7499 46.5348 50.7499 45.8418C50.7499 45.1488 51.3124 44.5818 51.9999 44.5818C52.6874 44.5818 53.2499 45.1488 53.2499 45.8418C53.2499 46.5348 52.6874 47.1018 51.9999 47.1018ZM59.4999 47.1018C58.8124 47.1018 58.2499 46.5348 58.2499 45.8418C58.2499 45.1488 58.8124 44.5818 59.4999 44.5818C60.1874 44.5818 60.7499 45.1488 60.7499 45.8418C60.7499 46.5348 60.1874 47.1018 59.4999 47.1018Z" fill="#5AB2F1"/>
<defs>
<filter id="filter0_d_0_391" x="-0.00012207" y="3.00018" width="98" height="98" filterUnits="userSpaceOnUse" color-interpolation-filters="sRGB">
<feFlood flood-opacity="0" result="BackgroundImageFix"/>
<feColorMatrix in="SourceAlpha" type="matrix" values="0 0 0 0 0 0 0 0 0 0 0 0 0 0 0 0 0 0 127 0" result="hardAlpha"/>
<feOffset dx="-6" dy="6"/>
<feGaussianBlur stdDeviation="4.5"/>
<feColorMatrix type="matrix" values="0 0 0 0 0.333333 0 0 0 0 0.690196 0 0 0 0 0.941176 0 0 0 0.5 0"/>
<feBlend mode="normal" in2="BackgroundImageFix" result="effect1_dropShadow_0_391"/>
<feBlend mode="normal" in="SourceGraphic" in2="effect1_dropShadow_0_391" result="shape"/>
</filter>
<linearGradient id="paint0_linear_0_391" x1="43.1453" y1="0.000184335" x2="88.7271" y2="74.8547" gradientUnits="userSpaceOnUse">
<stop stop-color="#54AFF0"/>
<stop offset="1" stop-color="#54AFF0" stop-opacity="0"/>
</linearGradient>
</defs>
</svg>
