<svg width="98" height="101" viewBox="0 0 98 101" fill="none" xmlns="http://www.w3.org/2000/svg">
<path d="M48.9999 7.04649C48.9999 3.15492 45.827 -0.0549772 41.981 0.538815C38.3554 1.09858 34.8014 2.09136 31.3964 3.50172C25.8155 5.81344 20.7445 9.20178 16.473 13.4733C12.2015 17.7448 8.81314 22.8158 6.50142 28.3967C4.1897 33.9777 2.99988 39.9594 2.99988 46.0002C2.99988 52.041 4.1897 58.0226 6.50142 63.6036C8.81314 69.1846 12.2015 74.2556 16.473 78.5271C20.7445 82.7986 25.8155 86.1869 31.3964 88.4986C34.8014 89.909 38.3554 90.9018 41.981 91.4616C45.827 92.0553 48.9999 88.8454 48.9999 84.9539V84.9539C48.9999 81.0623 45.8077 77.9851 42.0107 77.1327C40.2303 76.733 38.4833 76.1804 36.7895 75.4788C32.9183 73.8753 29.4008 71.525 26.438 68.5621C23.4751 65.5992 21.1248 62.0818 19.5213 58.2106C17.9178 54.3394 17.0925 50.1903 17.0925 46.0002C17.0925 41.81 17.9178 37.6609 19.5213 33.7898C21.1248 29.9186 23.4751 26.4011 26.4379 23.4383C29.4008 20.4754 32.9183 18.1251 36.7895 16.5216C38.4833 15.82 40.2303 15.2674 42.0107 14.8677C45.8077 14.0153 48.9999 10.9381 48.9999 7.04649V7.04649Z" fill="url(#paint0_linear_0_386)"/>
<g filter="url(#filter0_d_0_386)">
<circle cx="54.9999" cy="46.0002" r="40" fill="white"/>
</g>
<path d="M42.2499 55.9169H50.7499V46.0002H42.2499V55.9169ZM52.1665 55.9169H69.1665V46.0002H52.1665V55.9169ZM42.2499 36.0835V44.5835H69.1665V36.0835H42.2499Z" fill="#5AB2F1"/>
<defs>
<filter id="filter0_d_0_386" x="-0.00012207" y="3.00018" width="98" height="98" filterUnits="userSpaceOnUse" color-interpolation-filters="sRGB">
<feFlood flood-opacity="0" result="BackgroundImageFix"/>
<feColorMatrix in="SourceAlpha" type="matrix" values="0 0 0 0 0 0 0 0 0 0 0 0 0 0 0 0 0 0 127 0" result="hardAlpha"/>
<feOffset dx="-6" dy="6"/>
<feGaussianBlur stdDeviation="4.5"/>
<feColorMatrix type="matrix" values="0 0 0 0 0.333333 0 0 0 0 0.690196 0 0 0 0 0.941176 0 0 0 0.5 0"/>
<feBlend mode="normal" in2="BackgroundImageFix" result="effect1_dropShadow_0_386"/>
<feBlend mode="normal" in="SourceGraphic" in2="effect1_dropShadow_0_386" result="shape"/>
</filter>
<linearGradient id="paint0_linear_0_386" x1="43.1453" y1="0.000184335" x2="88.7271" y2="74.8547" gradientUnits="userSpaceOnUse">
<stop stop-color="#54AFF0"/>
<stop offset="1" stop-color="#54AFF0" stop-opacity="0"/>
</linearGradient>
</defs>
</svg>
